<svg xmlns="http://www.w3.org/2000/svg" viewBox="0 0 100 100"><ellipse cx="52" cy="84" rx="36" ry="8" fill="#080b11" opacity="0.5"></ellipse><rect x="18" y="34" width="64" height="44" rx="4" fill="#161a23"></rect><rect x="18" y="34" width="64" height="44" rx="4" fill="none" stroke="#10141c"></rect><polygon points="34,40 45,56 23,56" fill="#080b11" opacity="0.7" transform="translate(4,4)"></polygon><polygon points="34,40 45,56 23,56" fill="#39414f"></polygon><polygon points="34,40 45,56 34,56" fill="#4b5563"></polygon><line x1="34" y1="40" x2="34" y2="56" stroke="#a8780a" stroke-width="1"></line><polygon points="58,38 69,54 47,54" fill="#080b11" opacity="0.7" transform="translate(4,4)"></polygon><polygon points="58,38 69,54 47,54" fill="#39414f"></polygon><polygon points="58,38 69,54 58,54" fill="#4b5563"></polygon><line x1="58" y1="38" x2="58" y2="54" stroke="#a8780a" stroke-width="1"></line><polygon points="46,54 57,70 35,70" fill="#080b11" opacity="0.7" transform="translate(4,4)"></polygon><polygon points="46,54 57,70 35,70" fill="#39414f"></polygon><polygon points="46,54 57,70 46,70" fill="#4b5563"></polygon><line x1="46" y1="54" x2="46" y2="70" stroke="#a8780a" stroke-width="1"></line><circle cx="46" cy="66" r="2.4" fill="#f5b301"></circle></svg>