<svg xmlns="http://www.w3.org/2000/svg" viewBox="0 0 100 100"><defs><clipPath id="hx"><polygon points="50,3 95,26.5 95,73.5 50,97 5,73.5 5,26.5"></polygon></clipPath></defs><g clip-path="url(#hx)">
      <rect width="100" height="100" fill="#5b4b8a"></rect>
      <g fill="#4a3c70"><polygon points="16,32 40,26 36,46 14,50"></polygon><polygon points="60,52 84,46 88,68 62,72"></polygon></g>
      <g stroke="#6ee7a8" stroke-width="2.4" fill="none" stroke-linecap="round" opacity="0.9"><path d="M26 44 H46 V60 H64"></path><path d="M32 70 V54 H50"></path></g>
      <g fill="#6ee7a8"><rect x="44" y="42" width="4.5" height="4.5"></rect><rect x="62" y="58" width="4.5" height="4.5"></rect><rect x="48" y="68" width="4.5" height="4.5"></rect></g>
    </g>
    <polygon points="50,3 95,26.5 95,73.5 50,97 5,73.5 5,26.5" fill="none" stroke="#0c0f16" stroke-width="3"></polygon></svg>